<svg xmlns="http://www.w3.org/2000/svg" width="67" height="65" viewBox="0 0 67 65">
  <defs>
    <style>
      .cls-1 {
        fill: #53131e;
      }
    </style>
  </defs>
  <path id="Polygon_4" data-name="Polygon 4" class="cls-1" d="M29.7,11.488a4,4,0,0,1,7.6,0l1.619,4.9a4,4,0,0,0,5.184,2.5l4.846-1.79a4,4,0,0,1,4.727,5.951l-2.789,4.239a4,4,0,0,0,1.285,5.63l4.356,2.612a4,4,0,0,1-1.685,7.413l-5.1.475a4,4,0,0,0-3.594,4.508l.67,5.065a4,4,0,0,1-6.84,3.307l-3.6-3.724a4,4,0,0,0-5.748,0l-3.6,3.724a4,4,0,0,1-6.84-3.307l.67-5.065a4,4,0,0,0-3.594-4.508l-5.1-.475a4,4,0,0,1-1.685-7.413l4.356-2.612a4,4,0,0,0,1.285-5.63l-2.789-4.239a4,4,0,0,1,4.727-5.951l4.846,1.79a4,4,0,0,0,5.184-2.5Z"/>
</svg>
