<svg id="cage" xmlns="http://www.w3.org/2000/svg" width="115" height="94.333" viewBox="0 0 108.846 94.333">
  <path id="Combined-Shape" d="M50.795,0V14.49A25.4,25.4,0,1,1,0,14.49V0H7.256V14.53a18.141,18.141,0,0,0,36.282,0V0Zm0,94.333V72.587A25.4,25.4,0,1,0,0,72.587V94.333H7.256V72.547a18.141,18.141,0,0,1,36.282,0V94.333ZM58.051,25.42a25.4,25.4,0,1,1,50.795,0V61.657a25.4,25.4,0,1,1-50.795,0Zm7.256-.04a18.141,18.141,0,0,1,36.282,0V61.7a18.141,18.141,0,0,1-36.282,0Z" fill="#ffefbd" fill-rule="evenodd"/>
</svg>
