<svg xmlns="http://www.w3.org/2000/svg" width="25.875" height="79.135" viewBox="0 0 25.875 79.135">
  <path id="Path_3" data-name="Path 3" d="M5.494,25.875A5.5,5.5,0,0,1,.53,18.03C1.264,16.479,8.075,2.8,20.752.438,28.146-.93,35.521,1.834,42.69,8.664c4.737,4.511,9.18,6.44,13.2,5.737,6.4-1.119,11.531-8.768,12.826-11.359a5.5,5.5,0,1,1,9.84,4.918c-.305.61-7.623,14.978-20.771,17.276-7.649,1.343-15.278-1.559-22.679-8.607-4.461-4.248-8.6-6.06-12.313-5.381-6.107,1.115-10.969,8.683-12.327,11.505A5.516,5.516,0,0,1,5.494,25.875Z" transform="translate(25.875 0) rotate(90)" fill="#e1e5b8"/>
</svg>
